<mxfile host="Electron" modified="2024-03-24T18:14:48.482Z" agent="Mozilla/5.0 (Windows NT 10.0; Win64; x64) AppleWebKit/537.36 (KHTML, like Gecko) draw.io/24.1.0 Chrome/120.0.6099.109 Electron/28.1.0 Safari/537.36" etag="ZFcW1lLZ4WShzll2voP0" version="24.1.0" type="device">
  <diagram name="Page-1" id="rhVmb61YmbHZ96Oh--cO">
    <mxGraphModel dx="1232" dy="1180" grid="1" gridSize="10" guides="1" tooltips="1" connect="1" arrows="1" fold="1" page="1" pageScale="1" pageWidth="850" pageHeight="1100" math="0" shadow="0">
      <root>
        <mxCell id="0" />
        <mxCell id="1" parent="0" />
        <mxCell id="MZHNydHtLXcJERCRwnDj-41" value="" style="rounded=0;whiteSpace=wrap;html=1;fillColor=none;" parent="1" vertex="1">
          <mxGeometry x="800" y="160" width="560" height="340" as="geometry" />
        </mxCell>
        <mxCell id="MZHNydHtLXcJERCRwnDj-17" style="edgeStyle=orthogonalEdgeStyle;rounded=0;orthogonalLoop=1;jettySize=auto;html=1;entryX=0;entryY=0.5;entryDx=0;entryDy=0;" parent="1" source="MZHNydHtLXcJERCRwnDj-18" target="MZHNydHtLXcJERCRwnDj-8" edge="1">
          <mxGeometry relative="1" as="geometry" />
        </mxCell>
        <mxCell id="MZHNydHtLXcJERCRwnDj-21" style="edgeStyle=orthogonalEdgeStyle;rounded=0;orthogonalLoop=1;jettySize=auto;html=1;entryX=0;entryY=0.5;entryDx=0;entryDy=0;" parent="1" source="MZHNydHtLXcJERCRwnDj-22" target="MZHNydHtLXcJERCRwnDj-20" edge="1">
          <mxGeometry relative="1" as="geometry" />
        </mxCell>
        <mxCell id="MZHNydHtLXcJERCRwnDj-1" value="" style="sketch=0;pointerEvents=1;shadow=0;dashed=0;html=1;strokeColor=none;fillColor=#005F4B;labelPosition=center;verticalLabelPosition=bottom;verticalAlign=top;align=center;outlineConnect=0;shape=mxgraph.veeam2.laptop;" parent="1" vertex="1">
          <mxGeometry x="40" y="450" width="80" height="60" as="geometry" />
        </mxCell>
        <mxCell id="MZHNydHtLXcJERCRwnDj-2" value="Client" style="text;html=1;align=center;verticalAlign=middle;resizable=0;points=[];autosize=1;strokeColor=none;fillColor=none;" parent="1" vertex="1">
          <mxGeometry x="55" y="520" width="50" height="30" as="geometry" />
        </mxCell>
        <mxCell id="MZHNydHtLXcJERCRwnDj-3" value="Auth Service" style="rounded=0;whiteSpace=wrap;html=1;" parent="1" vertex="1">
          <mxGeometry x="240" y="300" width="120" height="60" as="geometry" />
        </mxCell>
        <mxCell id="MZHNydHtLXcJERCRwnDj-4" value="" style="html=1;verticalLabelPosition=bottom;align=center;labelBackgroundColor=#ffffff;verticalAlign=top;strokeWidth=2;strokeColor=#0080F0;shadow=0;dashed=0;shape=mxgraph.ios7.icons.data;" parent="1" vertex="1">
          <mxGeometry x="275" y="170" width="50" height="70" as="geometry" />
        </mxCell>
        <mxCell id="MZHNydHtLXcJERCRwnDj-5" value="Users Store" style="text;html=1;align=center;verticalAlign=middle;resizable=0;points=[];autosize=1;strokeColor=none;fillColor=none;" parent="1" vertex="1">
          <mxGeometry x="255" y="130" width="90" height="30" as="geometry" />
        </mxCell>
        <mxCell id="MZHNydHtLXcJERCRwnDj-6" value="" style="html=1;verticalLabelPosition=bottom;align=center;labelBackgroundColor=#ffffff;verticalAlign=top;strokeWidth=2;strokeColor=#0080F0;shadow=0;dashed=0;shape=mxgraph.ios7.icons.data;" parent="1" vertex="1">
          <mxGeometry x="395" y="170" width="50" height="70" as="geometry" />
        </mxCell>
        <mxCell id="MZHNydHtLXcJERCRwnDj-7" value="Session Store" style="text;html=1;align=center;verticalAlign=middle;resizable=0;points=[];autosize=1;strokeColor=none;fillColor=none;" parent="1" vertex="1">
          <mxGeometry x="370" y="130" width="100" height="30" as="geometry" />
        </mxCell>
        <mxCell id="MZHNydHtLXcJERCRwnDj-16" style="edgeStyle=orthogonalEdgeStyle;rounded=0;orthogonalLoop=1;jettySize=auto;html=1;entryX=0.5;entryY=1;entryDx=0;entryDy=0;" parent="1" source="MZHNydHtLXcJERCRwnDj-8" target="MZHNydHtLXcJERCRwnDj-3" edge="1">
          <mxGeometry relative="1" as="geometry" />
        </mxCell>
        <mxCell id="MZHNydHtLXcJERCRwnDj-83" style="edgeStyle=orthogonalEdgeStyle;rounded=0;orthogonalLoop=1;jettySize=auto;html=1;entryX=0;entryY=0.5;entryDx=0;entryDy=0;" parent="1" source="MZHNydHtLXcJERCRwnDj-8" target="MZHNydHtLXcJERCRwnDj-9" edge="1">
          <mxGeometry relative="1" as="geometry">
            <Array as="points">
              <mxPoint x="450" y="480" />
              <mxPoint x="450" y="330" />
            </Array>
          </mxGeometry>
        </mxCell>
        <mxCell id="MZHNydHtLXcJERCRwnDj-8" value="Custom HTTP Proxy&lt;div&gt;???&lt;/div&gt;" style="rounded=0;whiteSpace=wrap;html=1;" parent="1" vertex="1">
          <mxGeometry x="240" y="450" width="120" height="60" as="geometry" />
        </mxCell>
        <mxCell id="MZHNydHtLXcJERCRwnDj-9" value="Fn Manager" style="rounded=0;whiteSpace=wrap;html=1;" parent="1" vertex="1">
          <mxGeometry x="500" y="300" width="120" height="60" as="geometry" />
        </mxCell>
        <mxCell id="MZHNydHtLXcJERCRwnDj-10" value="Fn Monitor Server" style="rounded=0;whiteSpace=wrap;html=1;" parent="1" vertex="1">
          <mxGeometry x="440" y="570" width="120" height="60" as="geometry" />
        </mxCell>
        <mxCell id="MZHNydHtLXcJERCRwnDj-11" value="" style="html=1;verticalLabelPosition=bottom;align=center;labelBackgroundColor=#ffffff;verticalAlign=top;strokeWidth=2;strokeColor=#0080F0;shadow=0;dashed=0;shape=mxgraph.ios7.icons.data;" parent="1" vertex="1">
          <mxGeometry x="536" y="170" width="50" height="70" as="geometry" />
        </mxCell>
        <mxCell id="MZHNydHtLXcJERCRwnDj-12" value="Fn Store" style="text;html=1;align=center;verticalAlign=middle;resizable=0;points=[];autosize=1;strokeColor=none;fillColor=none;" parent="1" vertex="1">
          <mxGeometry x="526" y="130" width="70" height="30" as="geometry" />
        </mxCell>
        <mxCell id="MZHNydHtLXcJERCRwnDj-49" style="edgeStyle=orthogonalEdgeStyle;rounded=0;orthogonalLoop=1;jettySize=auto;html=1;entryX=0;entryY=0.5;entryDx=0;entryDy=0;" parent="1" source="MZHNydHtLXcJERCRwnDj-13" target="MZHNydHtLXcJERCRwnDj-44" edge="1">
          <mxGeometry relative="1" as="geometry" />
        </mxCell>
        <mxCell id="MZHNydHtLXcJERCRwnDj-50" style="edgeStyle=orthogonalEdgeStyle;rounded=0;orthogonalLoop=1;jettySize=auto;html=1;entryX=0;entryY=0.5;entryDx=0;entryDy=0;" parent="1" source="MZHNydHtLXcJERCRwnDj-13" target="MZHNydHtLXcJERCRwnDj-45" edge="1">
          <mxGeometry relative="1" as="geometry" />
        </mxCell>
        <mxCell id="MZHNydHtLXcJERCRwnDj-51" style="edgeStyle=orthogonalEdgeStyle;rounded=0;orthogonalLoop=1;jettySize=auto;html=1;entryX=0;entryY=0.5;entryDx=0;entryDy=0;" parent="1" source="MZHNydHtLXcJERCRwnDj-13" target="MZHNydHtLXcJERCRwnDj-46" edge="1">
          <mxGeometry relative="1" as="geometry" />
        </mxCell>
        <mxCell id="MZHNydHtLXcJERCRwnDj-52" style="edgeStyle=orthogonalEdgeStyle;rounded=0;orthogonalLoop=1;jettySize=auto;html=1;entryX=0;entryY=0.5;entryDx=0;entryDy=0;" parent="1" source="MZHNydHtLXcJERCRwnDj-13" target="MZHNydHtLXcJERCRwnDj-47" edge="1">
          <mxGeometry relative="1" as="geometry" />
        </mxCell>
        <mxCell id="MZHNydHtLXcJERCRwnDj-53" style="edgeStyle=orthogonalEdgeStyle;rounded=0;orthogonalLoop=1;jettySize=auto;html=1;entryX=0;entryY=0.5;entryDx=0;entryDy=0;" parent="1" source="MZHNydHtLXcJERCRwnDj-13" target="MZHNydHtLXcJERCRwnDj-48" edge="1">
          <mxGeometry relative="1" as="geometry" />
        </mxCell>
        <mxCell id="MZHNydHtLXcJERCRwnDj-13" value="Fn Boostrap" style="rounded=0;whiteSpace=wrap;html=1;" parent="1" vertex="1">
          <mxGeometry x="850" y="300" width="120" height="60" as="geometry" />
        </mxCell>
        <mxCell id="MZHNydHtLXcJERCRwnDj-14" value="" style="verticalLabelPosition=bottom;html=1;verticalAlign=top;align=center;strokeColor=none;fillColor=#00BEF2;shape=mxgraph.azure.queue_generic;pointerEvents=1;" parent="1" vertex="1">
          <mxGeometry x="650" y="312.5" width="116.67" height="35" as="geometry" />
        </mxCell>
        <mxCell id="MZHNydHtLXcJERCRwnDj-15" value="Kafka Queue???" style="text;html=1;align=center;verticalAlign=middle;resizable=0;points=[];autosize=1;strokeColor=none;fillColor=none;" parent="1" vertex="1">
          <mxGeometry x="650" y="288" width="110" height="30" as="geometry" />
        </mxCell>
        <mxCell id="MZHNydHtLXcJERCRwnDj-25" style="edgeStyle=orthogonalEdgeStyle;rounded=0;orthogonalLoop=1;jettySize=auto;html=1;entryX=0;entryY=0.5;entryDx=0;entryDy=0;" parent="1" source="MZHNydHtLXcJERCRwnDj-20" target="MZHNydHtLXcJERCRwnDj-10" edge="1">
          <mxGeometry relative="1" as="geometry" />
        </mxCell>
        <mxCell id="MZHNydHtLXcJERCRwnDj-20" value="Custom WS Proxy&lt;div&gt;???&lt;/div&gt;" style="rounded=0;whiteSpace=wrap;html=1;" parent="1" vertex="1">
          <mxGeometry x="240" y="570" width="120" height="60" as="geometry" />
        </mxCell>
        <mxCell id="MZHNydHtLXcJERCRwnDj-23" value="" style="edgeStyle=orthogonalEdgeStyle;rounded=0;orthogonalLoop=1;jettySize=auto;html=1;entryX=0;entryY=0.5;entryDx=0;entryDy=0;" parent="1" source="MZHNydHtLXcJERCRwnDj-1" target="MZHNydHtLXcJERCRwnDj-22" edge="1">
          <mxGeometry relative="1" as="geometry">
            <mxPoint x="120" y="480" as="sourcePoint" />
            <mxPoint x="240" y="600" as="targetPoint" />
          </mxGeometry>
        </mxCell>
        <mxCell id="MZHNydHtLXcJERCRwnDj-22" value="WS" style="text;html=1;align=center;verticalAlign=middle;resizable=0;points=[];autosize=1;strokeColor=none;fillColor=none;" parent="1" vertex="1">
          <mxGeometry x="160" y="530" width="40" height="30" as="geometry" />
        </mxCell>
        <mxCell id="MZHNydHtLXcJERCRwnDj-24" value="" style="edgeStyle=orthogonalEdgeStyle;rounded=0;orthogonalLoop=1;jettySize=auto;html=1;entryX=0;entryY=0.5;entryDx=0;entryDy=0;" parent="1" source="MZHNydHtLXcJERCRwnDj-1" target="MZHNydHtLXcJERCRwnDj-18" edge="1">
          <mxGeometry relative="1" as="geometry">
            <mxPoint x="120" y="480" as="sourcePoint" />
            <mxPoint x="240" y="480" as="targetPoint" />
          </mxGeometry>
        </mxCell>
        <mxCell id="MZHNydHtLXcJERCRwnDj-18" value="HTTP" style="text;html=1;align=center;verticalAlign=middle;resizable=0;points=[];autosize=1;strokeColor=none;fillColor=none;" parent="1" vertex="1">
          <mxGeometry x="155" y="465" width="50" height="30" as="geometry" />
        </mxCell>
        <mxCell id="MZHNydHtLXcJERCRwnDj-26" value="gRPC?" style="text;html=1;align=center;verticalAlign=middle;resizable=0;points=[];autosize=1;strokeColor=none;fillColor=none;" parent="1" vertex="1">
          <mxGeometry x="369" y="577" width="60" height="30" as="geometry" />
        </mxCell>
        <mxCell id="MZHNydHtLXcJERCRwnDj-29" value="" style="verticalLabelPosition=bottom;html=1;verticalAlign=top;align=center;strokeColor=none;fillColor=#00BEF2;shape=mxgraph.azure.queue_generic;pointerEvents=1;" parent="1" vertex="1">
          <mxGeometry x="600" y="582.5" width="116.67" height="35" as="geometry" />
        </mxCell>
        <mxCell id="MZHNydHtLXcJERCRwnDj-30" value="Kafka Queue???" style="text;html=1;align=center;verticalAlign=middle;resizable=0;points=[];autosize=1;strokeColor=none;fillColor=none;" parent="1" vertex="1">
          <mxGeometry x="600" y="560" width="110" height="30" as="geometry" />
        </mxCell>
        <mxCell id="MZHNydHtLXcJERCRwnDj-31" style="edgeStyle=orthogonalEdgeStyle;rounded=0;orthogonalLoop=1;jettySize=auto;html=1;entryX=0;entryY=0.5;entryDx=0;entryDy=0;entryPerimeter=0;" parent="1" source="MZHNydHtLXcJERCRwnDj-10" target="MZHNydHtLXcJERCRwnDj-29" edge="1">
          <mxGeometry relative="1" as="geometry" />
        </mxCell>
        <mxCell id="MZHNydHtLXcJERCRwnDj-33" style="edgeStyle=orthogonalEdgeStyle;rounded=0;orthogonalLoop=1;jettySize=auto;html=1;entryX=0.5;entryY=1.029;entryDx=0;entryDy=0;entryPerimeter=0;" parent="1" source="MZHNydHtLXcJERCRwnDj-3" target="MZHNydHtLXcJERCRwnDj-4" edge="1">
          <mxGeometry relative="1" as="geometry" />
        </mxCell>
        <mxCell id="MZHNydHtLXcJERCRwnDj-34" style="edgeStyle=orthogonalEdgeStyle;rounded=0;orthogonalLoop=1;jettySize=auto;html=1;entryX=0.5;entryY=1.029;entryDx=0;entryDy=0;entryPerimeter=0;" parent="1" source="MZHNydHtLXcJERCRwnDj-3" target="MZHNydHtLXcJERCRwnDj-6" edge="1">
          <mxGeometry relative="1" as="geometry" />
        </mxCell>
        <mxCell id="MZHNydHtLXcJERCRwnDj-36" value="gRPC" style="text;html=1;align=center;verticalAlign=middle;resizable=0;points=[];autosize=1;strokeColor=none;fillColor=none;" parent="1" vertex="1">
          <mxGeometry x="441" y="306" width="60" height="30" as="geometry" />
        </mxCell>
        <mxCell id="MZHNydHtLXcJERCRwnDj-37" style="edgeStyle=orthogonalEdgeStyle;rounded=0;orthogonalLoop=1;jettySize=auto;html=1;entryX=0.48;entryY=1.043;entryDx=0;entryDy=0;entryPerimeter=0;" parent="1" source="MZHNydHtLXcJERCRwnDj-9" target="MZHNydHtLXcJERCRwnDj-11" edge="1">
          <mxGeometry relative="1" as="geometry" />
        </mxCell>
        <mxCell id="MZHNydHtLXcJERCRwnDj-38" style="edgeStyle=orthogonalEdgeStyle;rounded=0;orthogonalLoop=1;jettySize=auto;html=1;entryX=0;entryY=0.5;entryDx=0;entryDy=0;entryPerimeter=0;" parent="1" source="MZHNydHtLXcJERCRwnDj-9" target="MZHNydHtLXcJERCRwnDj-14" edge="1">
          <mxGeometry relative="1" as="geometry" />
        </mxCell>
        <mxCell id="MZHNydHtLXcJERCRwnDj-42" value="Fn VM???" style="text;html=1;align=center;verticalAlign=middle;resizable=0;points=[];autosize=1;strokeColor=none;fillColor=none;" parent="1" vertex="1">
          <mxGeometry x="1293" y="137" width="80" height="30" as="geometry" />
        </mxCell>
        <mxCell id="MZHNydHtLXcJERCRwnDj-44" value="client-id-function-id" style="shape=dataStorage;whiteSpace=wrap;html=1;fixedSize=1;" parent="1" vertex="1">
          <mxGeometry x="1070" y="190" width="160" height="40" as="geometry" />
        </mxCell>
        <mxCell id="MZHNydHtLXcJERCRwnDj-45" value="client-id-function-id" style="shape=dataStorage;whiteSpace=wrap;html=1;fixedSize=1;" parent="1" vertex="1">
          <mxGeometry x="1070" y="250" width="160" height="40" as="geometry" />
        </mxCell>
        <mxCell id="MZHNydHtLXcJERCRwnDj-46" value="client-id-function-id" style="shape=dataStorage;whiteSpace=wrap;html=1;fixedSize=1;" parent="1" vertex="1">
          <mxGeometry x="1070" y="310" width="160" height="40" as="geometry" />
        </mxCell>
        <mxCell id="MZHNydHtLXcJERCRwnDj-47" value="client-id-function-id" style="shape=dataStorage;whiteSpace=wrap;html=1;fixedSize=1;" parent="1" vertex="1">
          <mxGeometry x="1070" y="370" width="160" height="40" as="geometry" />
        </mxCell>
        <mxCell id="MZHNydHtLXcJERCRwnDj-48" value="client-id-function-id" style="shape=dataStorage;whiteSpace=wrap;html=1;fixedSize=1;" parent="1" vertex="1">
          <mxGeometry x="1070" y="430" width="160" height="40" as="geometry" />
        </mxCell>
        <mxCell id="MZHNydHtLXcJERCRwnDj-55" value="" style="image;points=[];aspect=fixed;html=1;align=center;shadow=0;dashed=0;image=img/lib/allied_telesis/computer_and_terminals/Personal_Computer_with_Server.svg;" parent="1" vertex="1">
          <mxGeometry x="1480" y="271.6" width="62.400000000000006" height="62.400000000000006" as="geometry" />
        </mxCell>
        <mxCell id="MZHNydHtLXcJERCRwnDj-56" value="" style="image;html=1;image=img/lib/clip_art/networking/Print_Server_128x128.png" parent="1" vertex="1">
          <mxGeometry x="1471.2" y="334" width="80" height="80" as="geometry" />
        </mxCell>
        <mxCell id="MZHNydHtLXcJERCRwnDj-64" style="edgeStyle=orthogonalEdgeStyle;rounded=0;orthogonalLoop=1;jettySize=auto;html=1;entryX=1;entryY=0.5;entryDx=0;entryDy=0;" parent="1" source="MZHNydHtLXcJERCRwnDj-57" target="MZHNydHtLXcJERCRwnDj-59" edge="1">
          <mxGeometry relative="1" as="geometry" />
        </mxCell>
        <mxCell id="MZHNydHtLXcJERCRwnDj-57" value="" style="rounded=0;whiteSpace=wrap;html=1;fillColor=none;" parent="1" vertex="1">
          <mxGeometry x="1450" y="244" width="120" height="190" as="geometry" />
        </mxCell>
        <mxCell id="MZHNydHtLXcJERCRwnDj-58" value="Function Consumers&lt;div&gt;(clients)&lt;/div&gt;" style="text;html=1;align=center;verticalAlign=middle;resizable=0;points=[];autosize=1;strokeColor=none;fillColor=none;" parent="1" vertex="1">
          <mxGeometry x="1440" y="204" width="130" height="40" as="geometry" />
        </mxCell>
        <mxCell id="MZHNydHtLXcJERCRwnDj-59" value="Proxy???&lt;div&gt;/&lt;/div&gt;&lt;div&gt;exposed&lt;/div&gt;&lt;div&gt;endpoint&lt;/div&gt;" style="rounded=0;whiteSpace=wrap;html=1;" parent="1" vertex="1">
          <mxGeometry x="1320" y="258" width="80" height="162" as="geometry" />
        </mxCell>
        <mxCell id="MZHNydHtLXcJERCRwnDj-61" style="edgeStyle=orthogonalEdgeStyle;rounded=0;orthogonalLoop=1;jettySize=auto;html=1;entryX=0.876;entryY=0.499;entryDx=0;entryDy=0;entryPerimeter=0;" parent="1" source="MZHNydHtLXcJERCRwnDj-59" target="MZHNydHtLXcJERCRwnDj-46" edge="1">
          <mxGeometry relative="1" as="geometry" />
        </mxCell>
        <mxCell id="MZHNydHtLXcJERCRwnDj-62" style="edgeStyle=orthogonalEdgeStyle;rounded=0;orthogonalLoop=1;jettySize=auto;html=1;entryX=0.877;entryY=0.499;entryDx=0;entryDy=0;entryPerimeter=0;" parent="1" source="MZHNydHtLXcJERCRwnDj-59" target="MZHNydHtLXcJERCRwnDj-45" edge="1">
          <mxGeometry relative="1" as="geometry" />
        </mxCell>
        <mxCell id="MZHNydHtLXcJERCRwnDj-72" style="edgeStyle=orthogonalEdgeStyle;rounded=0;orthogonalLoop=1;jettySize=auto;html=1;entryX=0.5;entryY=0;entryDx=0;entryDy=0;" parent="1" source="MZHNydHtLXcJERCRwnDj-65" target="MZHNydHtLXcJERCRwnDj-71" edge="1">
          <mxGeometry relative="1" as="geometry" />
        </mxCell>
        <mxCell id="MZHNydHtLXcJERCRwnDj-65" value="Fn Load Monitor" style="rounded=0;whiteSpace=wrap;html=1;" parent="1" vertex="1">
          <mxGeometry x="850" y="400" width="120" height="60" as="geometry" />
        </mxCell>
        <mxCell id="MZHNydHtLXcJERCRwnDj-66" value="" style="html=1;verticalLabelPosition=bottom;align=center;labelBackgroundColor=#ffffff;verticalAlign=top;strokeWidth=2;strokeColor=#0080F0;shadow=0;dashed=0;shape=mxgraph.ios7.icons.data;" parent="1" vertex="1">
          <mxGeometry x="710" y="400" width="50" height="70" as="geometry" />
        </mxCell>
        <mxCell id="MZHNydHtLXcJERCRwnDj-67" value="Usage Store /&lt;div&gt;Lake ??&lt;/div&gt;" style="text;html=1;align=center;verticalAlign=middle;resizable=0;points=[];autosize=1;strokeColor=none;fillColor=none;" parent="1" vertex="1">
          <mxGeometry x="685" y="362" width="100" height="40" as="geometry" />
        </mxCell>
        <mxCell id="MZHNydHtLXcJERCRwnDj-68" style="edgeStyle=orthogonalEdgeStyle;rounded=0;orthogonalLoop=1;jettySize=auto;html=1;entryX=1.081;entryY=0.443;entryDx=0;entryDy=0;entryPerimeter=0;" parent="1" source="MZHNydHtLXcJERCRwnDj-65" target="MZHNydHtLXcJERCRwnDj-66" edge="1">
          <mxGeometry relative="1" as="geometry" />
        </mxCell>
        <mxCell id="MZHNydHtLXcJERCRwnDj-71" value="Exposed endpoint" style="rounded=0;whiteSpace=wrap;html=1;" parent="1" vertex="1">
          <mxGeometry x="850" y="482" width="120" height="28" as="geometry" />
        </mxCell>
        <mxCell id="MZHNydHtLXcJERCRwnDj-73" style="edgeStyle=orthogonalEdgeStyle;rounded=0;orthogonalLoop=1;jettySize=auto;html=1;entryX=1;entryY=0.51;entryDx=0;entryDy=0;entryPerimeter=0;" parent="1" source="MZHNydHtLXcJERCRwnDj-71" target="MZHNydHtLXcJERCRwnDj-29" edge="1">
          <mxGeometry relative="1" as="geometry">
            <Array as="points">
              <mxPoint x="910" y="600" />
            </Array>
          </mxGeometry>
        </mxCell>
        <mxCell id="MZHNydHtLXcJERCRwnDj-74" style="edgeStyle=orthogonalEdgeStyle;rounded=0;orthogonalLoop=1;jettySize=auto;html=1;entryX=1;entryY=0.51;entryDx=0;entryDy=0;entryPerimeter=0;" parent="1" source="MZHNydHtLXcJERCRwnDj-13" target="MZHNydHtLXcJERCRwnDj-14" edge="1">
          <mxGeometry relative="1" as="geometry" />
        </mxCell>
        <mxCell id="MZHNydHtLXcJERCRwnDj-75" value="nu stiu ce se intampla aici" style="text;html=1;align=center;verticalAlign=middle;resizable=0;points=[];autosize=1;strokeColor=none;fillColor=none;" parent="1" vertex="1">
          <mxGeometry x="800" y="130" width="160" height="30" as="geometry" />
        </mxCell>
        <mxCell id="MZHNydHtLXcJERCRwnDj-79" style="edgeStyle=orthogonalEdgeStyle;rounded=0;orthogonalLoop=1;jettySize=auto;html=1;entryX=0.5;entryY=1;entryDx=0;entryDy=0;" parent="1" source="MZHNydHtLXcJERCRwnDj-77" target="MZHNydHtLXcJERCRwnDj-13" edge="1">
          <mxGeometry relative="1" as="geometry">
            <Array as="points">
              <mxPoint x="560" y="370" />
              <mxPoint x="910" y="370" />
            </Array>
          </mxGeometry>
        </mxCell>
        <mxCell id="MZHNydHtLXcJERCRwnDj-77" value="Fn Auto Scaler&lt;div&gt;Load Balancer&lt;/div&gt;" style="rounded=0;whiteSpace=wrap;html=1;" parent="1" vertex="1">
          <mxGeometry x="500" y="434" width="120" height="60" as="geometry" />
        </mxCell>
        <mxCell id="MZHNydHtLXcJERCRwnDj-78" style="edgeStyle=orthogonalEdgeStyle;rounded=0;orthogonalLoop=1;jettySize=auto;html=1;entryX=0.5;entryY=0;entryDx=0;entryDy=0;entryPerimeter=0;" parent="1" source="MZHNydHtLXcJERCRwnDj-77" target="MZHNydHtLXcJERCRwnDj-29" edge="1">
          <mxGeometry relative="1" as="geometry">
            <Array as="points">
              <mxPoint x="658" y="464" />
            </Array>
          </mxGeometry>
        </mxCell>
        <mxCell id="MZHNydHtLXcJERCRwnDj-80" value="scale up /&lt;div&gt;down request&lt;/div&gt;" style="text;html=1;align=center;verticalAlign=middle;resizable=0;points=[];autosize=1;strokeColor=none;fillColor=none;" parent="1" vertex="1">
          <mxGeometry x="470" y="380" width="100" height="40" as="geometry" />
        </mxCell>
        <mxCell id="MZHNydHtLXcJERCRwnDj-81" value="get events payload&lt;div&gt;where usage &amp;gt; X%&lt;/div&gt;" style="text;html=1;align=center;verticalAlign=middle;resizable=0;points=[];autosize=1;strokeColor=none;fillColor=none;" parent="1" vertex="1">
          <mxGeometry x="660" y="503" width="120" height="40" as="geometry" />
        </mxCell>
        <mxCell id="MZHNydHtLXcJERCRwnDj-84" value="AI Analytics" style="rounded=0;whiteSpace=wrap;html=1;" parent="1" vertex="1">
          <mxGeometry x="580" y="386" width="102" height="34" as="geometry" />
        </mxCell>
        <mxCell id="MZHNydHtLXcJERCRwnDj-87" style="edgeStyle=orthogonalEdgeStyle;rounded=0;orthogonalLoop=1;jettySize=auto;html=1;entryX=-0.029;entryY=0.488;entryDx=0;entryDy=0;entryPerimeter=0;" parent="1" source="MZHNydHtLXcJERCRwnDj-84" target="MZHNydHtLXcJERCRwnDj-66" edge="1">
          <mxGeometry relative="1" as="geometry">
            <Array as="points">
              <mxPoint x="690" y="403" />
              <mxPoint x="690" y="434" />
            </Array>
          </mxGeometry>
        </mxCell>
        <mxCell id="MZHNydHtLXcJERCRwnDj-88" value="???" style="text;html=1;align=center;verticalAlign=middle;resizable=0;points=[];autosize=1;strokeColor=none;fillColor=none;" parent="1" vertex="1">
          <mxGeometry x="650" y="380" width="40" height="30" as="geometry" />
        </mxCell>
      </root>
    </mxGraphModel>
  </diagram>
</mxfile>
